<svg width="400" height="401" viewBox="0 0 400 401" fill="none" xmlns="http://www.w3.org/2000/svg">
<path d="M203.496 170.955V233.887H290.95C287.11 254.125 275.586 271.262 258.302 282.785L311.04 323.705C341.767 295.343 359.495 253.684 359.495 204.195C359.495 192.673 358.461 181.592 356.54 170.957L203.496 170.955Z" fill="#4285F4"/>
<path d="M112.426 231.43L100.532 240.535L58.4287 273.33C85.1672 326.363 139.97 363 203.492 363C247.366 363 284.149 348.522 311.036 323.705L258.298 282.784C243.82 292.534 225.355 298.444 203.492 298.444C161.242 298.444 125.346 269.933 112.492 231.524L112.426 231.43Z" fill="#34A853"/>
<path d="M58.4305 127.672C47.3516 149.535 41 174.205 41 200.5C41 226.795 47.3516 251.466 58.4305 273.329C58.4305 273.475 112.499 231.374 112.499 231.374C109.249 221.624 107.328 211.284 107.328 200.499C107.328 189.713 109.249 179.373 112.499 169.623L58.4305 127.672Z" fill="#FBBC05"/>
<path d="M203.495 102.704C227.427 102.704 248.7 110.977 265.688 126.931L312.222 80.3981C284.006 54.1032 247.371 38 203.495 38C139.973 38 85.1672 74.4885 58.4287 127.67L112.496 169.625C125.347 131.215 161.246 102.704 203.495 102.704Z" fill="#EA4335"/>
</svg>
