<svg width="120" height="120" viewBox="0 0 120 120" fill="none" xmlns="http://www.w3.org/2000/svg">
<path d="M46.7772 75.4455L85.3213 46.9583C87.211 45.5618 89.9119 46.1065 90.8124 48.2759C95.5512 59.7162 93.434 73.4646 84.0055 82.9042C74.5774 92.3434 61.4589 94.4137 49.4683 89.6989L36.3696 95.7709C55.157 108.628 77.9708 105.448 92.227 91.165C103.535 79.8434 107.037 64.4111 103.763 50.4947L103.792 50.5242C99.0433 30.0802 104.96 21.9084 117.079 5.19852C117.366 4.80231 117.653 4.40611 117.94 4L101.991 19.967V19.9175L46.7675 75.4556" fill="black"/>
<path d="M38.8229 82.3688C25.3383 69.4721 27.6632 49.5133 39.169 38.0038C47.6771 29.4853 61.6169 26.0087 73.7855 31.1197L86.8546 25.0776C84.5002 23.3739 81.4825 21.5415 78.0199 20.2538C62.3689 13.8056 43.6309 17.0148 30.9082 29.7429C18.6702 41.9954 14.8217 60.835 21.4304 76.9111C26.3672 88.9259 18.2744 97.4243 10.1224 106.002C7.23353 109.043 4.3348 112.084 2 115.303L38.8128 82.3785" fill="black"/>
</svg>
