<svg width="250" height="250" viewBox="0 0 250 250" fill="none" xmlns="http://www.w3.org/2000/svg">
<g clip-path="url(#clip0_909_152)">
<path d="M194.94 0H55.0595C24.651 0 0 24.651 0 55.0596V194.94C0 225.349 24.651 250 55.0595 250H194.94C225.349 250 250 225.349 250 194.94V55.0596C250 24.651 225.349 0 194.94 0Z" fill="url(#paint0_linear_909_152)"/>
<path d="M125 43.2773C100.664 43.2775 77.3245 51.3299 60.1162 65.6632C42.908 79.9965 33.2404 99.4367 33.2402 119.707C33.2624 132.892 37.3792 145.848 45.1904 157.315C53.0017 168.783 64.2418 178.373 77.8184 185.152C74.2024 193.248 68.7793 200.839 61.7734 207.611C75.3594 205.226 88.1128 200.216 99.041 192.971C107.467 195.056 116.21 196.123 125 196.137C149.336 196.137 172.676 188.084 189.884 173.751C207.092 159.417 216.76 139.977 216.76 119.707C216.76 99.4367 207.092 79.9965 189.884 65.6632C172.676 51.3299 149.336 43.2775 125 43.2773Z" fill="white"/>
</g>
<defs>
<linearGradient id="paint0_linear_909_152" x1="126.984" y1="233.405" x2="126.984" y2="31.0262" gradientUnits="userSpaceOnUse">
<stop stop-color="#0CBD2A"/>
<stop offset="1" stop-color="#5BF675"/>
</linearGradient>
<clipPath id="clip0_909_152">
<rect width="250" height="250" fill="white"/>
</clipPath>
</defs>
</svg>
