<svg width="400" height="401" viewBox="0 0 400 401" fill="none" xmlns="http://www.w3.org/2000/svg">
<path d="M159.306 156.471V120.912C159.306 118.563 159.946 116.854 162.401 115.466L228.354 77.1307C237.212 72.005 248.524 69.6558 259.516 69.6558C301.244 69.6558 327.604 101.798 327.604 136.396C327.604 139.172 327.604 142.91 326.964 146.006L257.916 105.642C254.501 103.613 250.765 103.293 246.603 105.642L159.306 156.471ZM311.81 282.796V203.776C311.81 199.291 310.102 196.301 306.047 193.845L218.536 142.91L249.271 125.077C250.979 124.009 253.754 124.009 255.461 125.077L321.841 163.412C340.624 174.411 353.644 198.33 353.644 221.182C353.537 248.198 337.102 273.186 311.81 282.796ZM141.163 214.668L110.748 196.515C108.4 195.127 107.653 193.418 107.653 191.069V114.825C107.653 77.5578 136.041 49.4736 174.674 49.4736C189.721 49.4736 204.129 54.5992 215.654 63.8894L147.033 103.827C142.978 106.176 141.27 109.273 141.27 113.758V214.668H141.163ZM200.713 248.946L159.306 225.667V176.44L200.713 153.161L241.694 176.44V225.667L200.713 248.946ZM226.326 352.526C211.279 352.526 196.872 347.401 185.346 338.111L254.074 298.173C258.129 295.824 259.837 292.727 259.837 288.242V187.332L290.572 205.485C292.92 206.873 293.667 208.582 293.667 210.931V287.281C293.667 324.549 264.959 352.526 226.326 352.526ZM145.646 276.923L79.2654 238.588C60.4826 227.589 47.4627 203.67 47.4627 180.818C47.4627 153.481 64.2178 128.814 89.5106 119.204V198.544C89.5106 203.029 91.2181 206.019 95.2735 208.475L182.464 259.09L151.729 276.923C150.128 277.991 147.353 277.991 145.646 276.923ZM141.484 332.344C102.21 332.344 73.3958 302.872 73.3958 266.352C73.3958 262.935 73.7159 259.518 74.0361 256.421L142.764 296.144C146.82 298.494 150.235 298.494 154.397 296.144L241.587 245.529V281.088C241.587 283.437 240.947 285.146 238.493 286.534L172.646 324.869C163.788 329.995 152.476 332.344 141.484 332.344ZM226.326 371C267.307 371 301.564 341.528 309.035 302.551C347.348 292.941 372 257.382 372 221.075C372 197.156 361.755 174.197 342.972 157.432C344.68 150.278 346.067 142.696 346.067 135.541C346.067 87.2751 306.794 51.0754 261.651 51.0754C252.366 51.0754 243.188 52.7839 234.33 55.8807C218.856 40.5038 197.939 31 174.674 31C133.693 31 99.4356 60.4724 91.9652 99.4485C53.6525 109.059 29 144.618 29 180.925C29 204.844 39.2452 227.803 58.028 244.568C56.3205 251.722 54.9331 259.304 54.9331 266.459C54.9331 314.725 94.2063 350.925 139.349 350.925C148.634 350.925 157.812 349.216 166.67 346.119C182.251 361.496 203.061 371 226.326 371Z" fill="black"/>
</svg>
